<?xml version="1.0" encoding="UTF-8" standalone="no"?>
<svg width="140px" height="20px" viewBox="0 0 140 20" version="1.1" xmlns="http://www.w3.org/2000/svg" xmlns:xlink="http://www.w3.org/1999/xlink" xmlns:sketch="http://www.bohemiancoding.com/sketch/ns">
    <!-- Generator: Sketch 3.3 (11970) - http://www.bohemiancoding.com/sketch -->
    <title>Imported Layers</title>
    <desc>Created with Sketch.</desc>
    <defs></defs>
    <g id="Page-1" stroke="none" stroke-width="1" fill="none" fill-rule="evenodd" sketch:type="MSPage">
        <g id="Imported-Layers" sketch:type="MSLayerGroup">
            <g id="1459717160_share4" transform="translate(120.000000, 0.000000)" sketch:type="MSShapeGroup">
                <path d="M0,0 L19.94,0 L19.94,20 L0,20 L0,0 Z" id="Fill-16" opacity="0.0139925373" fill="#242931"></path>
                <path d="M13.75,12.3333333 C13.2346,12.3333333 12.7612,12.5150222 12.38185,12.8174222 L8.46745,10.3818889 C8.4871,10.2572889 8.5,10.1302 8.5,10 C8.5,9.86948889 8.4871,9.74271111 8.46745,9.61795556 L12.38185,7.18242222 C12.7612,7.48513333 13.2346,7.66666667 13.75,7.66666667 C14.99245,7.66666667 16,6.6218 16,5.33333333 C16,4.04486667 14.99245,3 13.75,3 C12.50755,3 11.5,4.04486667 11.5,5.33333333 C11.5,5.46353333 11.5129,5.59062222 11.53285,5.71522222 L7.61845,8.15075556 C7.2391,7.84835556 6.7657,7.66666667 6.25,7.66666667 C5.00755,7.66666667 4,8.71153333 4,10 C4,11.2884667 5.00755,12.3333333 6.25,12.3333333 C6.7657,12.3333333 7.2391,12.1518 7.61845,11.8490889 L11.53285,14.2846222 C11.5129,14.4093778 11.5,14.5361556 11.5,14.6666667 C11.5,15.9551333 12.50755,17 13.75,17 C14.99245,17 16,15.9551333 16,14.6666667 C16,13.3782 14.99245,12.3333333 13.75,12.3333333 L13.75,12.3333333 Z" id="Shape" fill="#FFFFFF"></path>
            </g>
            <g id="Group" transform="translate(80.000000, 0.000000)" sketch:type="MSShapeGroup">
                <path d="M0,0 L20.001,0 L20.001,20 L0,20 L0,0 Z" id="Fill-1"></path>
                <path d="M4.956,4.424 L5.993,4.424 L6.661,6.736 L6.727,6.736 L7.363,4.424 L8.409,4.424 L7.211,7.81 L7.211,10.209 L6.182,10.209 L6.182,7.918 L4.956,4.424" id="Fill-2" fill="#FFFFFF"></path>
                <path d="M8.484,6.918 C8.484,6.587 8.606,6.324 8.854,6.128 C9.099,5.933 9.43,5.834 9.846,5.834 C10.225,5.834 10.535,5.937 10.777,6.144 C11.018,6.351 11.138,6.616 11.138,6.942 L11.138,9.146 C11.138,9.511 11.02,9.797 10.784,10.005 C10.546,10.213 10.22,10.317 9.803,10.317 C9.404,10.317 9.084,10.209 8.844,9.996 C8.605,9.781 8.484,9.492 8.484,9.13 L8.484,6.918 L8.484,6.918 Z M9.425,9.21 C9.425,9.328 9.458,9.417 9.523,9.482 C9.587,9.546 9.681,9.578 9.802,9.578 C9.926,9.578 10.024,9.545 10.096,9.48 C10.17,9.414 10.206,9.324 10.206,9.21 L10.206,6.885 C10.206,6.792 10.168,6.717 10.095,6.659 C10.02,6.602 9.922,6.574 9.802,6.574 C9.69,6.574 9.6,6.602 9.529,6.659 C9.46,6.717 9.425,6.792 9.425,6.885 L9.425,9.21 L9.425,9.21 Z" id="Fill-3" fill="#FFFFFF"></path>
                <path d="M14.489,5.941 L14.489,10.209 L13.574,10.209 L13.574,9.738 C13.407,9.91 13.232,10.044 13.048,10.135 C12.865,10.226 12.689,10.271 12.52,10.271 C12.306,10.271 12.148,10.208 12.041,10.081 C11.934,9.953 11.88,9.762 11.88,9.508 L11.88,5.941 L12.793,5.941 L12.793,9.213 C12.793,9.314 12.814,9.387 12.852,9.433 C12.89,9.478 12.953,9.502 13.039,9.502 C13.105,9.502 13.19,9.471 13.294,9.412 C13.395,9.352 13.489,9.274 13.574,9.182 L13.574,5.941 L14.489,5.941" id="Fill-4" fill="#FFFFFF"></path>
                <path d="M7.186,10.318 L4.375,10.318 L4.375,11.08 L5.322,11.08 L5.322,15.568 L6.238,15.568 L6.238,11.08 L7.186,11.08 L7.186,10.318" id="Fill-5" fill="#FFFFFF"></path>
                <path d="M9.05,14.637 C8.973,14.721 8.89,14.79 8.798,14.844 C8.706,14.898 8.63,14.926 8.57,14.926 C8.495,14.926 8.439,14.906 8.404,14.864 C8.372,14.824 8.355,14.758 8.355,14.665 L8.355,11.693 L7.542,11.693 L7.542,14.934 C7.542,15.165 7.59,15.337 7.685,15.453 C7.78,15.568 7.92,15.626 8.108,15.626 C8.262,15.626 8.419,15.585 8.581,15.502 C8.744,15.42 8.898,15.301 9.05,15.143 L9.05,15.568 L9.861,15.568 L9.861,11.693 L9.05,11.693 L9.05,14.637" id="Fill-6" fill="#FFFFFF"></path>
                <path d="M12.605,11.895 C12.471,11.73 12.273,11.647 12.016,11.647 C11.89,11.647 11.766,11.677 11.642,11.739 C11.52,11.799 11.403,11.892 11.293,12.008 L11.293,10.318 L10.473,10.318 L10.473,15.568 L11.293,15.568 L11.293,15.271 C11.399,15.391 11.517,15.478 11.641,15.533 C11.765,15.591 11.906,15.618 12.065,15.618 C12.307,15.618 12.49,15.545 12.617,15.399 C12.744,15.252 12.809,15.042 12.809,14.769 L12.809,12.617 C12.809,12.3 12.74,12.061 12.605,11.895 M11.972,14.662 C11.972,14.786 11.947,14.874 11.901,14.928 C11.855,14.983 11.781,15.01 11.683,15.01 C11.613,15.01 11.549,14.996 11.486,14.969 C11.424,14.942 11.358,14.896 11.293,14.832 L11.293,12.418 C11.349,12.365 11.404,12.324 11.461,12.3 C11.518,12.274 11.574,12.262 11.634,12.262 C11.742,12.262 11.827,12.295 11.887,12.363 C11.944,12.432 11.972,12.53 11.972,12.661 L11.972,14.662" id="Fill-7" fill="#FFFFFF"></path>
                <path d="M15.625,13.724 L15.625,12.735 C15.625,12.368 15.525,12.088 15.326,11.892 C15.127,11.695 14.84,11.598 14.469,11.598 C14.105,11.598 13.81,11.703 13.58,11.914 C13.35,12.127 13.233,12.401 13.233,12.735 L13.233,14.477 C13.233,14.85 13.34,15.143 13.548,15.355 C13.757,15.568 14.044,15.675 14.407,15.675 C14.814,15.675 15.116,15.574 15.319,15.376 C15.523,15.174 15.625,14.873 15.625,14.477 L15.625,14.277 L14.789,14.277 L14.789,14.454 C14.789,14.683 14.762,14.828 14.71,14.896 C14.655,14.964 14.561,14.996 14.427,14.996 C14.297,14.996 14.206,14.957 14.15,14.879 C14.098,14.8 14.071,14.658 14.071,14.454 L14.071,13.724 L15.625,13.724 L15.625,13.724 Z M14.071,12.729 C14.071,12.568 14.099,12.45 14.155,12.383 C14.213,12.311 14.305,12.276 14.435,12.276 C14.557,12.276 14.648,12.311 14.703,12.383 C14.761,12.45 14.789,12.568 14.789,12.729 L14.789,13.121 L14.071,13.121 L14.071,12.729 L14.071,12.729 Z" id="Fill-8" fill="#FFFFFF"></path>
            </g>
            <g id="Group" transform="translate(100.000000, 0.000000)" sketch:type="MSShapeGroup">
                <path d="M0,0 L20,0 L20,20 L0,20 L0,0 Z" id="Fill-9"></path>
                <path d="M4.375,7.5 L6.875,7.5 L6.875,15.625 L4.375,15.625 L4.375,7.5 Z" id="Fill-10" fill="#FFFFFF"></path>
                <path d="M13.918,7.999 C12.987,7.476 11.614,7.433 10.625,7.884 L10.625,7.499 L8.125,7.499 L8.125,15.625 L10.625,15.625 L10.625,10.654 L11.655,10.158 C11.907,10.037 12.461,10.047 12.695,10.18 C12.872,10.279 13.125,10.688 13.125,10.938 L13.125,15.625 L15.625,15.625 L15.625,10.938 C15.625,9.789 14.907,8.553 13.918,7.999" id="Fill-11" fill="#FFFFFF"></path>
                <path d="M5.625,4.375 C4.934,4.375 4.375,4.935 4.375,5.625 C4.375,6.315 4.934,6.875 5.625,6.875 C6.316,6.875 6.875,6.315 6.875,5.625 C6.875,4.935 6.316,4.375 5.625,4.375" id="Fill-12" fill="#FFFFFF"></path>
            </g>
            <g id="Group-17-+-Fill-18" sketch:type="MSShapeGroup">
                <g id="Group-17" fill="#242931" opacity="0.0132929104">
                    <path d="M0.06,0 L20,0 L20,20 L0.06,20 L0.06,0 Z" id="Fill-16"></path>
                </g>
                <path d="M11.875,6.875 L13.75,6.875 L13.75,4.375 L11.648,4.375 C10,4.375 8.75,5.625 8.75,6.875 L8.75,8.125 L6.875,8.125 L6.875,10.625 L8.75,10.625 L8.75,15.625 L11.25,15.625 L11.25,10.625 L13.125,10.625 L13.125,8.125 L11.25,8.125 L11.25,7.5 C11.25,7.111 11.661,6.875 11.875,6.875" id="Fill-18" fill="#FFFFFF"></path>
            </g>
            <g id="Fill-19-+-Fill-20" transform="translate(60.000000, 0.000000)" sketch:type="MSShapeGroup">
                <path d="M0,0 L20,0 L20,20 L0,20 L0,0 Z" id="Fill-19"></path>
                <path d="M15,8.75 L11.25,8.75 L11.25,5 L8.75,5 L8.75,8.75 L5,8.75 L5,11.249 L8.75,11.249 L8.75,15 L11.25,15 L11.25,11.249 L15,11.249 L15,8.75" id="Fill-20" fill="#FFFFFF"></path>
            </g>
            <g id="Group" transform="translate(20.000000, 0.000000)" sketch:type="MSShapeGroup">
                <path d="M0,0 L20,0 L20,20 L0,20 L0,0 Z" id="Fill-21"></path>
                <path d="M13.437,10 C13.437,8.107 11.893,6.563 10.001,6.563 C8.106,6.563 6.563,8.107 6.563,10 C6.563,11.894 8.106,13.438 10.001,13.438 C11.893,13.438 13.437,11.894 13.437,10" id="Fill-22" fill="#FFFFFF"></path>
                <path d="M16.875,3.553 C16.875,3.297 16.703,3.125 16.447,3.125 L14.726,3.125 C14.47,3.125 14.298,3.297 14.298,3.553 L14.298,5.274 C14.298,5.53 14.47,5.702 14.726,5.702 L16.447,5.702 C16.703,5.702 16.875,5.53 16.875,5.274 L16.875,3.553" id="Fill-23" fill="#FFFFFF"></path>
                <path d="M16.875,9.14 L15.071,9.14 C15.159,9.399 15.159,9.745 15.159,10 C15.159,11.355 14.625,12.591 13.763,13.514 C13.688,13.593 13.612,13.67 13.533,13.744 C13.485,13.789 13.436,13.835 13.386,13.878 C13.308,13.946 13.227,14.013 13.145,14.075 C13.09,14.118 13.034,14.161 12.977,14.201 C12.895,14.261 12.81,14.315 12.724,14.369 C12.663,14.407 12.602,14.446 12.54,14.481 C12.452,14.532 12.361,14.578 12.269,14.623 C12.205,14.654 12.142,14.688 12.077,14.717 C11.98,14.76 11.88,14.797 11.78,14.834 C11.717,14.857 11.655,14.883 11.59,14.903 C11.477,14.94 11.362,14.971 11.245,14.999 C11.191,15.014 11.138,15.029 11.083,15.041 C10.936,15.073 10.785,15.097 10.633,15.115 C10.607,15.118 10.583,15.124 10.557,15.128 C10.374,15.147 10.187,15.157 10,15.157 C9.812,15.157 9.626,15.147 9.444,15.128 C9.417,15.124 9.393,15.118 9.367,15.115 C9.215,15.097 9.063,15.073 8.917,15.041 C8.862,15.029 8.809,15.014 8.755,14.999 C8.639,14.971 8.522,14.94 8.41,14.903 C8.346,14.883 8.283,14.857 8.22,14.834 C8.12,14.797 8.021,14.76 7.924,14.717 C7.858,14.688 7.795,14.654 7.729,14.622 C7.639,14.577 7.549,14.532 7.461,14.482 C7.397,14.446 7.337,14.407 7.276,14.369 C7.189,14.315 7.106,14.261 7.022,14.201 C6.966,14.161 6.911,14.118 6.854,14.075 C6.772,14.013 6.693,13.946 6.614,13.878 C6.564,13.835 6.515,13.789 6.467,13.743 C6.388,13.67 6.312,13.593 6.239,13.514 C5.375,12.591 4.842,11.356 4.842,10 C4.842,9.745 4.842,9.399 4.93,9.14 L3.125,9.14 L3.125,15.106 C3.125,15.112 3.129,15.117 3.129,15.124 C3.129,15.136 3.125,15.146 3.125,15.156 L3.125,15.158 C3.125,16.107 3.895,16.878 4.845,16.878 L15.156,16.878 C16.105,16.878 16.875,16.107 16.875,15.158 L16.875,15.156 C16.875,15.146 16.872,15.136 16.872,15.124 C16.872,15.117 16.875,15.112 16.875,15.106 L16.875,9.14" id="Fill-24" fill="#FFFFFF"></path>
            </g>
            <g id="Fill-13-+-Fill-14" transform="translate(40.000000, 0.000000)" sketch:type="MSShapeGroup">
                <path d="M0,0 L20,0 L20,20 L0,20 L0,0 Z" id="Fill-13"></path>
                <path d="M16.25,9.637 C15.811,9.719 15.173,9.634 14.835,9.48 C15.536,9.418 16.012,9.071 16.195,8.599 C15.942,8.767 15.156,8.953 14.723,8.776 C14.701,8.666 14.676,8.56 14.653,8.463 C14.324,7.143 13.19,6.077 12.004,6.206 C12.1,6.163 12.197,6.125 12.294,6.088 C12.424,6.038 13.191,5.9 13.07,5.607 C12.968,5.349 12.032,5.804 11.856,5.863 C12.089,5.768 12.474,5.604 12.514,5.312 C12.158,5.366 11.808,5.55 11.538,5.816 C11.635,5.702 11.71,5.562 11.725,5.413 C10.774,6.074 10.218,7.407 9.769,8.701 C9.416,8.328 9.102,8.035 8.822,7.872 C8.034,7.413 7.093,6.934 5.615,6.335 C5.569,6.868 5.856,7.576 6.682,8.046 C6.505,8.019 6.177,8.079 5.915,8.146 C6.022,8.757 6.37,9.26 7.314,9.502 C6.883,9.533 6.66,9.641 6.459,9.871 C6.654,10.294 7.134,10.793 7.997,10.691 C7.037,11.142 7.606,11.976 8.387,11.852 C7.056,13.349 4.956,13.238 3.75,11.986 C6.897,16.655 13.74,14.747 14.758,10.25 C15.523,10.255 15.972,9.961 16.25,9.637" id="Fill-14" fill="#FFFFFF"></path>
            </g>
        </g>
    </g>
</svg>