<?xml version="1.0" encoding="utf-8"?>
<!-- Generator: Adobe Illustrator 16.0.0, SVG Export Plug-In . SVG Version: 6.00 Build 0)  -->
<!DOCTYPE svg PUBLIC "-//W3C//DTD SVG 1.1//EN" "http://www.w3.org/Graphics/SVG/1.1/DTD/svg11.dtd">
<svg version="1.1" id="Layer_1" xmlns="http://www.w3.org/2000/svg" xmlns:xlink="http://www.w3.org/1999/xlink" x="0px" y="0px"
	 width="167px" height="51px" viewBox="0 0 167 51" enable-background="new 0 0 167 51" xml:space="preserve">
<g>
	<defs>
		<path id="SVGID_1_" d="M30.165,41.819l0.002-0.001L30.165,41.819z M33.835,29.3c2.043,0.202,3.227,2.228,2.921,4.739
			c-0.208,1.707-1.063,3.645-2.961,5.365c-0.483,0.438-0.989,0.838-1.515,1.199c7.073-4.429,6.434-9.524,6.434-9.524
			c-0.955-1.374-2.301-1.84-3.846-1.84C34.533,29.239,34.188,29.26,33.835,29.3"/>
	</defs>
	<clipPath id="SVGID_2_">
		<use xlink:href="#SVGID_1_"  overflow="visible"/>
	</clipPath>
	
		<linearGradient id="SVGID_3_" gradientUnits="userSpaceOnUse" x1="0" y1="51.002" x2="1" y2="51.002" gradientTransform="matrix(-7.6762 -13.2956 -11.873 6.8549 644.0674 -307.574)">
		<stop  offset="0" style="stop-color:#DE355D"/>
		<stop  offset="0.3" style="stop-color:#DE355D"/>
		<stop  offset="1" style="stop-color:#8C3954"/>
	</linearGradient>
	<polygon clip-path="url(#SVGID_2_)" fill="url(#SVGID_3_)" points="32.462,45.798 24.718,32.384 37.056,25.26 44.8,38.674 	"/>
</g>
<g>
	<defs>
		<path id="SVGID_4_" d="M27.154,6.801L27.154,6.801L27.154,6.801z M27.162,6.802l-0.007-0.001
			C27.157,6.802,27.159,6.802,27.162,6.802 M27.154,6.801c-0.004,0-0.008-0.001-0.011-0.001L27.154,6.801z M27.143,6.8l-0.012-0.002
			C27.135,6.799,27.139,6.799,27.143,6.8 M27.131,6.798L27.131,6.798C27.131,6.798,27.131,6.798,27.131,6.798 M27.13,6.798
			c-0.001,0-0.002-0.001-0.003-0.001c-0.011-0.001-0.021-0.002-0.032-0.003L27.13,6.798z M27.031,6.786L27.031,6.786h-0.002H27.031z
			 M0.059,25.5c0,13.676,11.03,24.776,24.679,24.89h0.412c5.839-0.047,11.348-2.129,15.687-5.726
			c2.311-1.917,4.29-4.263,5.811-6.962c0.825-1.465,3.706-7.875,7.561-7.154c-5.344-2.063-9.1-0.415-12.259,2.44
			c-3.898,3.525-7.253,8.725-15.956,10.033C16.633,44.516,5.869,37.934,6.071,25.5C6.242,15.076,14.527,6.985,24.949,6.697
			c0.005,0,0.011,0,0.016,0c0.704-0.019,1.39,0.009,2.064,0.089h0.001h0.001c0,0.001,0.001,0.001,0.001,0.001
			c0.021,0.002,0.043,0.004,0.063,0.007l-0.06-0.008c15.383,1.599,17.966,17.108,26.696,15.413c-3.102-0.074-5.021-4.332-5.66-5.931
			C44.403,7.093,35.433,0.61,24.949,0.61C11.202,0.61,0.059,11.754,0.059,25.5"/>
	</defs>
	<clipPath id="SVGID_5_">
		<use xlink:href="#SVGID_4_"  overflow="visible"/>
	</clipPath>
	
		<linearGradient id="SVGID_6_" gradientUnits="userSpaceOnUse" x1="0" y1="51" x2="1" y2="51" gradientTransform="matrix(-54.1504 0 0 49.7805 54.2188 -2513.3069)">
		<stop  offset="0" style="stop-color:#643B50"/>
		<stop  offset="0.9" style="stop-color:#FF3361"/>
		<stop  offset="1" style="stop-color:#FF3361"/>
	</linearGradient>
	<rect x="0.059" y="0.61" clip-path="url(#SVGID_5_)" fill="url(#SVGID_6_)" width="54.15" height="49.78"/>
</g>
<g>
	<defs>
		<path id="SVGID_7_" d="M24.949,6.623C14.527,6.91,6.242,15.076,6.071,25.5C5.869,37.934,16.633,44.589,25.994,43.094
			c2.846-0.454,5.562-1.662,7.801-3.689c1.898-1.721,2.829-3.646,3.037-5.354c0.306-2.512-0.954-4.549-2.997-4.751
			c2.046,4.313-2.952,8.12-8.886,8.12c-6.584,0-11.92-5.337-11.92-11.92s5.336-11.881,11.92-11.919
			c6.541-0.039,10.009,9.497,0.615,13.16c-2.259,0.881-3.837-1.018-3.861-2.294c-0.022-1.12,0.417-2.846,2.541-2.805
			c-1.817-2.963-6.807-2.162-7.732,0.928c-0.78,2.608,0.683,4.504,2.337,5.346c0.794,0.404,1.762,0.589,2.819,0.608
			c3.719,0.066,8.554-1.924,10.891-3.729c7.099-5.481,4.572-15.622-3.837-17.772c-0.001,0-0.001,0-0.001,0
			c-0.542-0.138-1.108-0.244-1.697-0.312c-0.531-0.062-1.082-0.094-1.651-0.094C25.232,6.617,25.091,6.619,24.949,6.623"/>
	</defs>
	<clipPath id="SVGID_8_">
		<use xlink:href="#SVGID_7_"  overflow="visible"/>
	</clipPath>
	
		<linearGradient id="SVGID_9_" gradientUnits="userSpaceOnUse" x1="0" y1="51" x2="1" y2="51" gradientTransform="matrix(30.8084 0 0 -36.6854 6.0625 1896.5487)">
		<stop  offset="0" style="stop-color:#463D4D"/>
		<stop  offset="0.8" style="stop-color:#FF3361"/>
		<stop  offset="1" style="stop-color:#FF3361"/>
	</linearGradient>
	<rect x="5.869" y="6.617" clip-path="url(#SVGID_8_)" fill="url(#SVGID_9_)" width="33.789" height="37.972"/>
</g>
<g>
	<defs>
		<path id="SVGID_10_" d="M32.559,24.795c-2.337,1.805-7.172,3.796-10.891,3.729c10.079,0.923,16.557-3.078,18.821-6.534
			c0.75-1.007-0.452-12.668-11.767-14.967C37.131,9.173,39.658,19.314,32.559,24.795"/>
	</defs>
	<clipPath id="SVGID_11_">
		<use xlink:href="#SVGID_10_"  overflow="visible"/>
	</clipPath>
	
		<linearGradient id="SVGID_12_" gradientUnits="userSpaceOnUse" x1="0" y1="51.001" x2="1" y2="51.001" gradientTransform="matrix(-21.8313 18.6365 18.6335 21.8278 -907.9071 -1104.3445)">
		<stop  offset="0" style="stop-color:#B53759"/>
		<stop  offset="0.2" style="stop-color:#B53759"/>
		<stop  offset="1" style="stop-color:#5B3C4F"/>
	</linearGradient>
	<polygon clip-path="url(#SVGID_11_)" fill="url(#SVGID_12_)" points="52.312,19.994 29.918,39.111 10.595,16.476 32.989,-2.641 	
		"/>
</g>
<g>
	<defs>
		<path id="SVGID_13_" d="M27.029,6.712c0.033,0.003,0.065,0.007,0.098,0.012c0.012,0.001,0.023,0.002,0.035,0.004
			c0.539,0.068,1.059,0.167,1.558,0.295c0,0,0.001,0,0.002,0c11.315,2.299,12.517,13.96,11.767,14.967
			c1.736,1.125,8.889,2.978,13.242,0.209C45,23.895,42.417,8.306,27.029,6.712z"/>
	</defs>
	<clipPath id="SVGID_14_">
		<use xlink:href="#SVGID_13_"  overflow="visible"/>
	</clipPath>
	
		<linearGradient id="SVGID_15_" gradientUnits="userSpaceOnUse" x1="4.882812e-04" y1="51" x2="1.0005" y2="51" gradientTransform="matrix(26.7017 0 0 -16.936 27.0312 879.5795)">
		<stop  offset="0" style="stop-color:#FF3361"/>
		<stop  offset="0.5" style="stop-color:#FF3361"/>
		<stop  offset="1" style="stop-color:#AF3758"/>
	</linearGradient>
	<rect x="27.029" y="6.712" clip-path="url(#SVGID_14_)" fill="url(#SVGID_15_)" width="26.702" height="18.256"/>
</g>
<g>
	<defs>
		<path id="SVGID_16_" d="M38.715,31.081c0.008,0.069,0.516,5.062-6.434,9.522c-0.676,0.467-1.383,0.87-2.114,1.215h-0.001
			l-0.001,0.001c-1.327,0.624-2.733,1.046-4.171,1.274c8.703-1.307,12.058-6.58,15.956-10.105c3.159-2.856,6.915-4.504,12.259-2.44
			c-1.199-1.53-4.103-2.53-7.238-2.53C44.011,28.018,40.846,28.909,38.715,31.081"/>
	</defs>
	<clipPath id="SVGID_17_">
		<use xlink:href="#SVGID_16_"  overflow="visible"/>
	</clipPath>
	
		<linearGradient id="SVGID_18_" gradientUnits="userSpaceOnUse" x1="-4.882812e-04" y1="50.9521" x2="0.9995" y2="50.9521" gradientTransform="matrix(28.2154 0 0 -15.0759 26 803.7145)">
		<stop  offset="0" style="stop-color:#FF3361"/>
		<stop  offset="0.3" style="stop-color:#FF3361"/>
		<stop  offset="0.8" style="stop-color:#AF3758"/>
		<stop  offset="1" style="stop-color:#AF3758"/>
	</linearGradient>
	<rect x="25.994" y="28.018" clip-path="url(#SVGID_17_)" fill="url(#SVGID_18_)" width="28.215" height="15.076"/>
</g>
<g>
	<defs>
		<path id="SVGID_19_" d="M21.4,24.253c-0.062,1.772,1.905,3.369,4.164,2.488c1.339-0.522,2.778-1.321,3.786-2.362
			c-4.763,2.253-5.715-1.796-5.106-2.737c-0.132-0.023-0.263-0.034-0.392-0.034C22.561,21.608,21.445,22.718,21.4,24.253"/>
	</defs>
	<clipPath id="SVGID_20_">
		<use xlink:href="#SVGID_19_"  overflow="visible"/>
	</clipPath>
	
		<linearGradient id="SVGID_21_" gradientUnits="userSpaceOnUse" x1="0" y1="50.9863" x2="1" y2="50.9863" gradientTransform="matrix(9.5215 -2.5513 -1.8626 -6.9511 115.6503 380.2658)">
		<stop  offset="0" style="stop-color:#803A53"/>
		<stop  offset="1" style="stop-color:#643250"/>
	</linearGradient>
	<polygon clip-path="url(#SVGID_20_)" fill="url(#SVGID_21_)" points="19.834,22.011 28.813,19.605 30.854,27.219 21.875,29.625 	
		"/>
</g>
<g>
	<defs>
		<rect id="SVGID_22_" width="167" height="51"/>
	</defs>
	<clipPath id="SVGID_23_">
		<use xlink:href="#SVGID_22_"  overflow="visible"/>
	</clipPath>
	<path clip-path="url(#SVGID_23_)" fill="#FFFFFF" d="M62.684,16.829c0.204,0.76,0.56,1.296,1.069,1.611
		c0.509,0.315,1.18,0.472,2.013,0.472c0.537,0,1.139-0.065,1.805-0.195c0.666-0.129,1.323-0.324,1.971-0.583
		c0.259,0.482,0.486,1.055,0.68,1.722c0.195,0.666,0.301,1.36,0.32,2.082c-1.648,0.611-3.332,0.916-5.054,0.916
		c-1.332,0-2.476-0.185-3.429-0.555c-0.953-0.37-1.731-0.884-2.332-1.541c-0.602-0.657-1.046-1.439-1.333-2.346
		c-0.287-0.907-0.43-1.898-0.43-2.971c0-1.055,0.148-2.045,0.444-2.971c0.296-0.926,0.74-1.731,1.333-2.416
		c0.592-0.684,1.333-1.226,2.221-1.624c0.889-0.398,1.925-0.597,3.11-0.597c0.981,0,1.855,0.167,2.624,0.5
		c0.768,0.333,1.42,0.791,1.957,1.374s0.949,1.287,1.236,2.11c0.286,0.824,0.43,1.717,0.43,2.68c0,0.5-0.023,0.948-0.069,1.346
		c-0.047,0.398-0.088,0.727-0.125,0.986H62.684z M67.07,13.636c-0.037-0.648-0.236-1.189-0.597-1.624
		c-0.361-0.435-0.884-0.653-1.569-0.653c-0.592,0-1.101,0.185-1.527,0.556c-0.426,0.37-0.676,0.944-0.75,1.721H67.07z"/>
	<path clip-path="url(#SVGID_23_)" fill="#FFFFFF" d="M72.901,8.166c0.407-0.092,0.809-0.157,1.208-0.194
		c0.398-0.037,0.782-0.056,1.152-0.056c0.351,0,0.731,0.019,1.138,0.056c0.407,0.037,0.806,0.102,1.194,0.194v7.719
		c0,1.111,0.185,1.87,0.556,2.276c0.37,0.408,0.934,0.611,1.693,0.611c0.315,0,0.556-0.008,0.722-0.028
		c0.167-0.017,0.287-0.036,0.361-0.055V8.166c0.407-0.092,0.81-0.157,1.208-0.194s0.782-0.056,1.152-0.056
		c0.353,0,0.731,0.019,1.139,0.056s0.806,0.102,1.194,0.194v13.689c-0.314,0.111-0.689,0.222-1.125,0.332
		c-0.435,0.112-0.897,0.219-1.388,0.32c-0.491,0.101-0.995,0.18-1.513,0.236c-0.519,0.056-1.028,0.083-1.527,0.083
		c-0.945,0-1.852-0.074-2.721-0.222c-0.871-0.148-1.634-0.449-2.291-0.902c-0.658-0.454-1.18-1.111-1.569-1.972
		c-0.389-0.86-0.583-2.013-0.583-3.457V8.166z"/>
	<path clip-path="url(#SVGID_23_)" fill="#FFFFFF" d="M88.171,8.221c0.853-0.129,1.727-0.226,2.624-0.291
		c0.898-0.065,1.763-0.098,2.596-0.098c0.852,0,1.686,0.08,2.499,0.236c0.814,0.158,1.546,0.445,2.194,0.861
		c0.647,0.417,1.17,0.99,1.568,1.722c0.398,0.731,0.598,1.679,0.598,2.846c0,1.055-0.181,1.943-0.542,2.665s-0.838,1.305-1.43,1.749
		c-0.594,0.445-1.264,0.764-2.014,0.958c-0.749,0.195-1.513,0.292-2.291,0.292c-0.314,0-0.583-0.01-0.805-0.028
		c-0.222-0.018-0.361-0.037-0.416-0.056v3.416c-0.481,0.092-0.912,0.152-1.291,0.18c-0.38,0.028-0.718,0.041-1.014,0.041
		c-0.315,0-0.652-0.013-1.014-0.041c-0.36-0.028-0.781-0.088-1.264-0.18V8.221z M92.753,15.579c0.092,0.018,0.208,0.033,0.347,0.042
		c0.14,0.009,0.254,0.013,0.348,0.013c0.647,0,1.18-0.161,1.597-0.485c0.416-0.324,0.624-0.875,0.624-1.652
		c0-0.667-0.208-1.18-0.624-1.542c-0.417-0.361-0.931-0.541-1.542-0.541h-0.319c-0.139,0-0.281,0.01-0.43,0.028V15.579z"/>
	<path clip-path="url(#SVGID_23_)" fill="#FFFFFF" d="M101.943,8.166c0.406-0.092,0.81-0.157,1.208-0.194
		c0.396-0.037,0.78-0.056,1.151-0.056c0.352,0,0.731,0.019,1.139,0.056c0.406,0.037,0.806,0.102,1.193,0.194v4.887h4.11V8.166
		c0.407-0.092,0.809-0.157,1.208-0.194c0.396-0.037,0.781-0.056,1.151-0.056c0.352,0,0.731,0.019,1.139,0.056
		s0.805,0.102,1.195,0.194v14.327c-0.482,0.074-0.917,0.129-1.307,0.166c-0.389,0.037-0.739,0.056-1.055,0.056
		s-0.666-0.019-1.055-0.056c-0.39-0.037-0.815-0.092-1.277-0.166v-5.276h-4.11v5.276c-0.48,0.074-0.916,0.129-1.305,0.166
		c-0.388,0.037-0.74,0.056-1.055,0.056c-0.315,0-0.666-0.019-1.056-0.056c-0.388-0.037-0.814-0.092-1.276-0.166V8.166z"/>
	<path clip-path="url(#SVGID_23_)" fill="#FFFFFF" d="M124.433,22.854c-1.166,0-2.192-0.176-3.082-0.527
		c-0.888-0.352-1.634-0.856-2.234-1.514c-0.603-0.657-1.056-1.444-1.361-2.36c-0.305-0.916-0.457-1.93-0.457-3.04
		c0-1.129,0.152-2.161,0.457-3.096c0.306-0.934,0.759-1.735,1.361-2.402c0.601-0.666,1.347-1.18,2.234-1.541
		c0.89-0.361,1.916-0.542,3.082-0.542c1.185,0,2.223,0.181,3.11,0.542c0.888,0.361,1.633,0.875,2.235,1.541
		c0.601,0.667,1.055,1.468,1.359,2.402c0.307,0.935,0.459,1.967,0.459,3.096c0,1.11-0.152,2.124-0.459,3.04
		c-0.305,0.916-0.759,1.703-1.359,2.36c-0.603,0.658-1.348,1.162-2.235,1.514C126.655,22.678,125.617,22.854,124.433,22.854
		 M124.433,19.05c0.815,0,1.42-0.314,1.819-0.944c0.397-0.629,0.597-1.527,0.597-2.693c0-1.185-0.199-2.092-0.597-2.721
		c-0.399-0.63-1.004-0.945-1.819-0.945c-0.814,0-1.416,0.315-1.805,0.945c-0.388,0.629-0.583,1.536-0.583,2.721
		c0,1.166,0.195,2.064,0.583,2.693C123.017,18.736,123.618,19.05,124.433,19.05"/>
	<path clip-path="url(#SVGID_23_)" fill="#FFFFFF" d="M133.457,8.221c0.869-0.111,1.771-0.203,2.707-0.277
		c0.935-0.074,1.818-0.112,2.651-0.112c2.239,0,3.919,0.422,5.04,1.263c1.119,0.843,1.679,2.023,1.679,3.541
		c0,0.574-0.064,1.073-0.193,1.499c-0.13,0.426-0.288,0.791-0.473,1.097c-0.185,0.305-0.38,0.551-0.583,0.736s-0.37,0.333-0.5,0.444
		l3.165,6.053c-0.369,0.074-0.781,0.129-1.235,0.166c-0.453,0.037-0.894,0.056-1.318,0.056c-0.519,0-1.018-0.019-1.5-0.056
		c-0.48-0.037-0.879-0.092-1.193-0.166l-3.081-6.553l0.388-0.222c0.647-0.37,1.092-0.764,1.333-1.18
		c0.24-0.416,0.36-0.865,0.36-1.347c0-0.481-0.144-0.874-0.431-1.18c-0.287-0.305-0.745-0.458-1.374-0.458
		c-0.352,0-0.62,0.019-0.805,0.056v10.912c-0.482,0.092-0.916,0.152-1.305,0.18c-0.39,0.028-0.731,0.041-1.027,0.041
		c-0.315,0-0.658-0.013-1.028-0.041c-0.371-0.028-0.796-0.088-1.276-0.18V8.221z"/>
	<path clip-path="url(#SVGID_23_)" fill="#FFFFFF" d="M148.145,8.166c0.407-0.092,0.811-0.157,1.208-0.194
		c0.398-0.037,0.782-0.056,1.152-0.056c0.351,0,0.73,0.019,1.138,0.056c0.408,0.037,0.807,0.102,1.195,0.194v14.327
		c-0.482,0.074-0.917,0.129-1.306,0.166s-0.74,0.056-1.056,0.056c-0.313,0-0.666-0.019-1.055-0.056
		c-0.388-0.037-0.814-0.092-1.277-0.166V8.166z"/>
	<path clip-path="url(#SVGID_23_)" fill="#FFFFFF" d="M162.639,13.219c-0.02-0.333-0.111-0.611-0.278-0.833
		c-0.166-0.222-0.38-0.393-0.638-0.514c-0.261-0.12-0.546-0.203-0.861-0.249s-0.639-0.07-0.972-0.07
		c-0.444,0-0.963,0.051-1.556,0.153s-1.203,0.264-1.833,0.486c-0.166-0.315-0.31-0.602-0.43-0.861
		c-0.12-0.259-0.213-0.523-0.278-0.792c-0.063-0.268-0.11-0.545-0.138-0.832c-0.028-0.287-0.042-0.616-0.042-0.986
		c0.888-0.296,1.772-0.518,2.652-0.666c0.879-0.148,1.67-0.223,2.374-0.223c0.962,0,1.832,0.116,2.609,0.348
		c0.777,0.231,1.439,0.587,1.985,1.068c0.546,0.482,0.967,1.097,1.264,1.847c0.295,0.75,0.443,1.643,0.443,2.679v8.136
		c-0.703,0.204-1.555,0.407-2.554,0.61c-1,0.204-2.056,0.306-3.165,0.306c-0.963,0-1.847-0.088-2.652-0.264
		c-0.805-0.176-1.495-0.458-2.069-0.847c-0.572-0.388-1.022-0.902-1.346-1.541c-0.324-0.639-0.486-1.42-0.486-2.346
		c0-0.907,0.194-1.656,0.583-2.249c0.39-0.592,0.89-1.064,1.5-1.416c0.61-0.351,1.286-0.597,2.026-0.736
		c0.741-0.139,1.462-0.208,2.166-0.208H162.639z M162.639,16.162h-1.583c-0.648,0-1.194,0.139-1.639,0.417
		c-0.443,0.278-0.666,0.666-0.666,1.166c0,0.371,0.083,0.662,0.249,0.875c0.167,0.212,0.376,0.374,0.625,0.485
		c0.25,0.111,0.519,0.186,0.807,0.223c0.286,0.037,0.55,0.055,0.791,0.055c0.166,0,0.406-0.018,0.721-0.055s0.546-0.074,0.695-0.112
		V16.162z"/>
	<path clip-path="url(#SVGID_23_)" fill="#FFFFFF" d="M59.709,28.623c0.407-0.092,0.81-0.157,1.208-0.193
		c0.398-0.037,0.782-0.057,1.152-0.057c0.351,0,0.731,0.02,1.138,0.057c0.407,0.036,0.806,0.102,1.194,0.193V42.95
		c-0.481,0.074-0.916,0.129-1.305,0.166c-0.388,0.037-0.74,0.056-1.055,0.056s-0.666-0.019-1.055-0.056
		c-0.388-0.037-0.815-0.092-1.277-0.166V28.623z"/>
	<path clip-path="url(#SVGID_23_)" fill="#FFFFFF" d="M66.956,29.317c0.648-0.223,1.425-0.439,2.332-0.652
		c0.907-0.213,2.055-0.32,3.443-0.32c0.759,0,1.509,0.062,2.249,0.182c0.741,0.121,1.425,0.366,2.055,0.735
		c0.481-0.24,1.045-0.452,1.694-0.639c0.647-0.185,1.378-0.278,2.193-0.278c0.722,0,1.467,0.07,2.235,0.208
		c0.769,0.141,1.462,0.432,2.083,0.876c0.62,0.444,1.129,1.082,1.527,1.915c0.397,0.833,0.597,1.936,0.597,3.305v8.302
		c-0.481,0.093-0.916,0.153-1.305,0.181c-0.39,0.027-0.732,0.041-1.028,0.041c-0.314,0-0.666-0.014-1.055-0.041
		s-0.824-0.088-1.305-0.181v-7.802c0-0.981-0.166-1.685-0.499-2.11c-0.334-0.426-0.88-0.639-1.639-0.639
		c-0.259,0-0.513,0.027-0.763,0.084c-0.25,0.055-0.421,0.101-0.514,0.138c0.167,0.649,0.25,1.389,0.25,2.222v8.107
		c-0.481,0.093-0.916,0.153-1.305,0.181c-0.389,0.027-0.731,0.041-1.027,0.041c-0.315,0-0.667-0.014-1.055-0.041
		c-0.389-0.027-0.824-0.088-1.305-0.181v-7.802c0-0.981-0.158-1.685-0.472-2.11c-0.315-0.426-0.852-0.639-1.611-0.639
		c-0.204,0-0.421,0.019-0.652,0.056c-0.232,0.037-0.375,0.074-0.431,0.111V42.95c-0.481,0.093-0.916,0.153-1.305,0.181
		c-0.388,0.027-0.731,0.041-1.027,0.041c-0.315,0-0.666-0.014-1.055-0.041c-0.389-0.027-0.824-0.088-1.305-0.181V29.317z"/>
	<path clip-path="url(#SVGID_23_)" fill="#FFFFFF" d="M97.025,33.677c-0.018-0.333-0.111-0.611-0.278-0.833
		c-0.166-0.222-0.38-0.394-0.638-0.514c-0.26-0.12-0.546-0.203-0.861-0.249c-0.314-0.047-0.639-0.07-0.972-0.07
		c-0.444,0-0.963,0.051-1.555,0.153c-0.593,0.102-1.203,0.264-1.832,0.485c-0.167-0.314-0.312-0.602-0.432-0.86
		c-0.119-0.26-0.212-0.523-0.276-0.792c-0.065-0.269-0.112-0.546-0.14-0.832C90.015,29.878,90,29.549,90,29.179
		c0.89-0.296,1.773-0.519,2.652-0.666c0.879-0.148,1.67-0.223,2.374-0.223c0.962,0,1.833,0.115,2.61,0.348
		c0.776,0.23,1.438,0.587,1.984,1.068s0.968,1.097,1.265,1.847c0.295,0.75,0.443,1.643,0.443,2.679v8.136
		c-0.704,0.204-1.555,0.407-2.554,0.61c-1,0.204-2.056,0.306-3.166,0.306c-0.963,0-1.846-0.088-2.652-0.264
		c-0.805-0.176-1.495-0.458-2.067-0.847c-0.574-0.389-1.023-0.902-1.348-1.541c-0.323-0.64-0.485-1.42-0.485-2.347
		c0-0.906,0.193-1.655,0.583-2.249c0.389-0.592,0.889-1.063,1.5-1.416c0.609-0.351,1.286-0.597,2.025-0.735
		c0.741-0.14,1.463-0.208,2.167-0.208H97.025z M97.025,36.619h-1.583c-0.648,0-1.194,0.14-1.638,0.417
		c-0.444,0.278-0.666,0.666-0.666,1.166c0,0.37,0.083,0.662,0.25,0.875c0.166,0.213,0.375,0.374,0.624,0.485
		c0.25,0.111,0.518,0.187,0.806,0.223c0.286,0.037,0.55,0.056,0.791,0.056c0.166,0,0.407-0.019,0.722-0.056
		c0.314-0.036,0.545-0.073,0.694-0.111V36.619z"/>
	<path clip-path="url(#SVGID_23_)" fill="#FFFFFF" d="M111.464,39.313v-4.082c0.462-0.092,0.873-0.157,1.235-0.194
		c0.361-0.037,0.708-0.056,1.041-0.056c0.648,0,1.416,0.084,2.304,0.25v7.053c-0.536,0.203-1.286,0.426-2.249,0.666
		s-2.081,0.361-3.358,0.361c-1.333,0-2.467-0.199-3.401-0.598c-0.936-0.397-1.699-0.938-2.292-1.624
		c-0.592-0.685-1.022-1.489-1.291-2.416c-0.268-0.925-0.401-1.916-0.401-2.971c0-1.017,0.161-1.979,0.485-2.887
		s0.806-1.694,1.443-2.36c0.64-0.667,1.431-1.195,2.375-1.583c0.944-0.389,2.036-0.583,3.276-0.583c0.647,0,1.36,0.074,2.138,0.222
		c0.776,0.149,1.628,0.407,2.555,0.777c-0.02,0.315-0.056,0.611-0.111,0.889c-0.056,0.278-0.125,0.561-0.209,0.848
		c-0.083,0.287-0.185,0.592-0.305,0.916c-0.121,0.324-0.264,0.689-0.43,1.097c-0.63-0.259-1.213-0.449-1.75-0.57
		c-0.537-0.119-1-0.18-1.388-0.18c-0.611,0-1.13,0.093-1.556,0.278c-0.426,0.185-0.769,0.435-1.026,0.75
		c-0.261,0.314-0.45,0.679-0.57,1.096s-0.18,0.847-0.18,1.291c0,1.241,0.268,2.152,0.805,2.735c0.537,0.584,1.323,0.875,2.36,0.875
		H111.464z"/>
	<path clip-path="url(#SVGID_23_)" fill="#FFFFFF" d="M118.071,28.623c0.407-0.092,0.811-0.157,1.208-0.193
		c0.398-0.037,0.782-0.057,1.152-0.057c0.351,0,0.73,0.02,1.138,0.057c0.408,0.036,0.806,0.102,1.195,0.193V42.95
		c-0.482,0.074-0.917,0.129-1.307,0.166c-0.388,0.037-0.739,0.056-1.055,0.056c-0.313,0-0.666-0.019-1.055-0.056
		s-0.814-0.092-1.277-0.166V28.623z"/>
	<path clip-path="url(#SVGID_23_)" fill="#FFFFFF" d="M125.318,29.317c0.647-0.223,1.435-0.439,2.359-0.652
		c0.926-0.213,2.083-0.32,3.471-0.32c0.814,0,1.63,0.07,2.443,0.208c0.814,0.141,1.55,0.432,2.208,0.876
		c0.657,0.444,1.193,1.082,1.61,1.915s0.625,1.936,0.625,3.305v8.302c-0.482,0.093-0.917,0.153-1.306,0.181
		s-0.731,0.041-1.027,0.041c-0.315,0-0.666-0.014-1.056-0.041c-0.389-0.027-0.823-0.088-1.305-0.181v-7.802
		c0-0.981-0.185-1.685-0.555-2.11s-0.936-0.639-1.694-0.639c-0.204,0-0.421,0.019-0.652,0.056s-0.375,0.074-0.43,0.111V42.95
		c-0.481,0.093-0.917,0.153-1.306,0.181s-0.731,0.041-1.027,0.041c-0.314,0-0.666-0.014-1.055-0.041s-0.824-0.088-1.305-0.181
		V29.317z"/>
	<path clip-path="url(#SVGID_23_)" fill="#FFFFFF" d="M148.169,39.313v-4.082c0.462-0.092,0.874-0.157,1.236-0.194
		c0.359-0.037,0.708-0.056,1.04-0.056c0.647,0,1.417,0.084,2.305,0.25v7.053c-0.537,0.203-1.287,0.426-2.249,0.666
		c-0.963,0.24-2.082,0.361-3.359,0.361c-1.333,0-2.467-0.199-3.401-0.598c-0.936-0.397-1.698-0.938-2.291-1.624
		c-0.593-0.685-1.023-1.489-1.291-2.416c-0.269-0.925-0.402-1.916-0.402-2.971c0-1.017,0.161-1.979,0.486-2.887
		c0.322-0.907,0.805-1.694,1.442-2.36c0.64-0.667,1.432-1.195,2.374-1.583c0.944-0.389,2.036-0.583,3.277-0.583
		c0.648,0,1.36,0.074,2.138,0.222c0.777,0.149,1.628,0.407,2.555,0.777c-0.02,0.315-0.057,0.611-0.111,0.889
		c-0.055,0.278-0.124,0.561-0.208,0.848c-0.083,0.287-0.186,0.592-0.305,0.916c-0.121,0.324-0.265,0.689-0.432,1.097
		c-0.629-0.259-1.212-0.449-1.749-0.57c-0.537-0.119-1-0.18-1.388-0.18c-0.611,0-1.129,0.093-1.555,0.278
		c-0.427,0.185-0.77,0.435-1.027,0.75c-0.26,0.314-0.45,0.679-0.57,1.096c-0.121,0.417-0.18,0.847-0.18,1.291
		c0,1.241,0.268,2.152,0.805,2.735c0.537,0.584,1.323,0.875,2.36,0.875H148.169z"/>
</g>
</svg>
